{
    "asset" : {
        "generator" : "Khronos glTF Blender I/O v1.6.16",
        "version" : "2.0"
    },
    "scene" : 0,
    "scenes" : [
        {
            "name" : "Scene",
            "nodes" : [
                0,
                1
            ]
        }
    ],
    "nodes" : [
        {
            "mesh" : 0,
            "name" : "ground"
        },
        {
            "mesh" : 1,
            "name" : "bunker",
            "translation" : [
                10.496771812438965,
                15.898619651794434,
                0
            ]
        }
    ],
    "meshes" : [
        {
            "name" : "ground",
            "primitives" : [
                {
                    "attributes" : {
                        "POSITION" : 0,
                        "NORMAL" : 1,
                        "TEXCOORD_0" : 2
                    },
                    "indices" : 3
                }
            ]
        },
        {
            "name" : "bunker",
            "primitives" : [
                {
                    "attributes" : {
                        "POSITION" : 4,
                        "NORMAL" : 5,
                        "TEXCOORD_0" : 6
                    },
                    "indices" : 7
                }
            ]
        }
    ],
	"images" : [
		{
			"uri" : "textures/diffuse.png"
		},
		{
			"uri" : "textures/bunker.png"
		}
	],
    "accessors" : [
        {
            "bufferView" : 0,
            "componentType" : 5126,
            "count" : 17547,
            "max" : [
                200.00001525878906,
                21.25058937072754,
                200.00001525878906
            ],
            "min" : [
                -200.00001525878906,
                -6.815159320831299,
                -200.00001525878906
            ],
            "type" : "VEC3"
        },
        {
            "bufferView" : 1,
            "componentType" : 5126,
            "count" : 17547,
            "type" : "VEC3"
        },
        {
            "bufferView" : 2,
            "componentType" : 5126,
            "count" : 17547,
            "type" : "VEC2"
        },
        {
            "bufferView" : 3,
            "componentType" : 5123,
            "count" : 98280,
            "type" : "SCALAR"
        },
        {
            "bufferView" : 4,
            "componentType" : 5126,
            "count" : 190,
            "max" : [
                25.703811645507812,
                0.20811498165130615,
                12.368982315063477
            ],
            "min" : [
                -10.481030464172363,
                -5.949708938598633,
                -3.1536865234375
            ],
            "type" : "VEC3"
        },
        {
            "bufferView" : 5,
            "componentType" : 5126,
            "count" : 190,
            "type" : "VEC3"
        },
        {
            "bufferView" : 6,
            "componentType" : 5126,
            "count" : 190,
            "type" : "VEC2"
        },
        {
            "bufferView" : 7,
            "componentType" : 5123,
            "count" : 336,
            "type" : "SCALAR"
        }
    ],
    "bufferViews" : [
        {
            "buffer" : 0,
            "byteLength" : 210564,
            "byteOffset" : 0
        },
        {
            "buffer" : 0,
            "byteLength" : 210564,
            "byteOffset" : 210564
        },
        {
            "buffer" : 0,
            "byteLength" : 140376,
            "byteOffset" : 421128
        },
        {
            "buffer" : 0,
            "byteLength" : 196560,
            "byteOffset" : 561504
        },
        {
            "buffer" : 0,
            "byteLength" : 2280,
            "byteOffset" : 758064
        },
        {
            "buffer" : 0,
            "byteLength" : 2280,
            "byteOffset" : 760344
        },
        {
            "buffer" : 0,
            "byteLength" : 1520,
            "byteOffset" : 762624
        },
        {
            "buffer" : 0,
            "byteLength" : 672,
            "byteOffset" : 764144
        }
    ],
    "buffers" : [
        {
            "byteLength" : 764816,
            "uri" : "scene.bin"
        }
    ]
}
