{
    "asset" : {
        "generator" : "Khronos glTF Blender I/O v1.6.16",
        "version" : "2.0"
    },
    "scene" : 0,
    "scenes" : [
        {
            "name" : "Scene",
            "nodes" : [
                0
            ]
        }
    ],
    "nodes" : [
        {
            "mesh" : 0,
            "name" : "bunker"
        }
    ],
    "meshes" : [
        {
            "name" : "bunker",
            "primitives" : [
                {
                    "attributes" : {
                        "POSITION" : 0,
                        "NORMAL" : 1,
                        "TEXCOORD_0" : 2
                    },
                    "indices" : 3
                }
            ]
        }
    ],
	"images" : [
		{
			"uri" : "textures/bunker_diffuse.png"
		}
	],
    "accessors" : [
        {
            "bufferView" : 0,
            "componentType" : 5126,
            "count" : 179,
            "max" : [
                36.200584411621094,
                16.106735229492188,
                12.368982315063477
            ],
            "min" : [
                0.015741348266601562,
                9.9489107131958,
                -3.1536865234375
            ],
            "type" : "VEC3"
        },
        {
            "bufferView" : 1,
            "componentType" : 5126,
            "count" : 179,
            "type" : "VEC3"
        },
        {
            "bufferView" : 2,
            "componentType" : 5126,
            "count" : 179,
            "type" : "VEC2"
        },
        {
            "bufferView" : 3,
            "componentType" : 5123,
            "count" : 336,
            "type" : "SCALAR"
        }
    ],
    "bufferViews" : [
        {
            "buffer" : 0,
            "byteLength" : 2148,
            "byteOffset" : 0
        },
        {
            "buffer" : 0,
            "byteLength" : 2148,
            "byteOffset" : 2148
        },
        {
            "buffer" : 0,
            "byteLength" : 1432,
            "byteOffset" : 4296
        },
        {
            "buffer" : 0,
            "byteLength" : 672,
            "byteOffset" : 5728
        }
    ],
    "buffers" : [
        {
            "byteLength" : 6400,
            "uri" : "scene.bin"
        }
    ]
}
